<svg width="22" height="22" viewBox="0 0 22 22" fill="none" xmlns="http://www.w3.org/2000/svg">
<path d="M3.33333 4.33333C3.33333 4.88562 3.78105 5.33333 4.33333 5.33333C4.88562 5.33333 5.33333 4.88562 5.33333 4.33333H3.33333ZM5.33333 1C5.33333 0.447715 4.88562 0 4.33333 0C3.78105 0 3.33333 0.447715 3.33333 1H5.33333ZM7.77778 4.33333C7.77778 4.88562 8.22549 5.33333 8.77778 5.33333C9.33006 5.33333 9.77778 4.88562 9.77778 4.33333H7.77778ZM9.77778 1C9.77778 0.447715 9.33006 0 8.77778 0C8.22549 0 7.77778 0.447715 7.77778 1H9.77778ZM12.2222 4.33333C12.2222 4.88562 12.6699 5.33333 13.2222 5.33333C13.7745 5.33333 14.2222 4.88562 14.2222 4.33333H12.2222ZM14.2222 1C14.2222 0.447715 13.7745 0 13.2222 0C12.6699 0 12.2222 0.447715 12.2222 1H14.2222ZM16.6667 4.33333C16.6667 4.88562 17.1144 5.33333 17.6667 5.33333C18.219 5.33333 18.6667 4.88562 18.6667 4.33333H16.6667ZM18.6667 1C18.6667 0.447715 18.219 0 17.6667 0C17.1144 0 16.6667 0.447715 16.6667 1H18.6667ZM21 9.77778C21.5523 9.77778 22 9.33006 22 8.77778C22 8.22549 21.5523 7.77778 21 7.77778V9.77778ZM1 7.77778C0.447715 7.77778 0 8.22549 0 8.77778C0 9.33006 0.447715 9.77778 1 9.77778V7.77778ZM5.33333 4.33333V1H3.33333V4.33333H5.33333ZM9.77778 4.33333V1H7.77778V4.33333H9.77778ZM14.2222 4.33333V1H12.2222V4.33333H14.2222ZM18.6667 4.33333V1H16.6667V4.33333H18.6667ZM21 7.77778H1V9.77778H21V7.77778ZM3.22222 22H18.7778V20H3.22222V22ZM18.7778 22C20.5574 22 22 20.5574 22 18.7778H20C20 19.4528 19.4528 20 18.7778 20V22ZM22 18.7778V5.44444H20V18.7778H22ZM22 5.44444C22 3.66487 20.5574 2.22222 18.7778 2.22222V4.22222C19.4528 4.22222 20 4.76942 20 5.44444H22ZM18.7778 2.22222H3.22222V4.22222H18.7778V2.22222ZM3.22222 2.22222C1.44264 2.22222 0 3.66486 0 5.44444H2C2 4.76943 2.54721 4.22222 3.22222 4.22222V2.22222ZM0 5.44444V18.7778H2V5.44444H0ZM0 18.7778C0 20.5574 1.44265 22 3.22222 22V20C2.5472 20 2 19.4528 2 18.7778H0Z" fill="#234CAD"/>
</svg>
