<svg width="24" height="30" viewBox="0 0 24 30" fill="none" xmlns="http://www.w3.org/2000/svg">
<path fill-rule="evenodd" clip-rule="evenodd" d="M13.0606 0.439335C12.7794 0.15804 12.3978 0 12 0H4.5C2.01472 0 0 2.01472 0 4.5V25.5C0 27.9853 2.01472 30 4.5 30H19.5C21.9853 30 24 27.9853 24 25.5V12C24 11.6022 23.8419 11.2206 23.5606 10.9393L13.0606 0.439335ZM4.5 3C3.67158 3 3 3.67158 3 4.5V25.5C3 26.3284 3.67157 27 4.5 27H19.5C20.3284 27 21 26.3284 21 25.5V13.5H22.5V12V10.5H18.8787L13.5 5.12131V1.5H12H10.5V3H4.5ZM11.3787 3H12V1.5L10.9394 2.56067L11.3787 3ZM11.3787 3H10.5V11.25C10.5 12.4926 11.5074 13.5 12.75 13.5H21V12.6213L21.4394 13.0606L22.5 12H21V12.6213L18.8787 10.5H13.5V5.12131L11.3787 3ZM13.5 10.5V11.25C13.5 10.8358 13.1642 10.5 12.75 10.5H13.5Z" fill="#234CAD"/>
</svg>
