<svg width="17" height="20" viewBox="0 0 17 20" fill="none" xmlns="http://www.w3.org/2000/svg">
<path fill-rule="evenodd" clip-rule="evenodd" d="M3.71875 2.15209H13.2812C14.1614 2.15209 14.875 2.87472 14.875 3.76615V17.3978L9.36179 13.8084C8.83681 13.4667 8.16319 13.4667 7.63821 13.8084L2.125 17.3978V3.76615C2.125 2.87472 2.83854 2.15209 3.71875 2.15209ZM0 3.76615C0 1.68616 1.66494 0 3.71875 0H13.2812C15.3351 0 17 1.68616 17 3.76615V18.3833C17 19.6603 15.605 20.4316 14.5445 19.741L8.5 15.8058L8.78721 15.6188C8.61226 15.7327 8.38774 15.7327 8.21279 15.6188L8.5 15.8058L2.45559 19.741C1.39492 20.4316 0 19.6603 0 18.3833V3.76615ZM2.125 17.3978V18.3833C2.125 17.9577 1.66003 17.7006 1.30647 17.9308L2.125 17.3978ZM14.875 17.3978L15.6936 17.9308C15.34 17.7006 14.875 17.9577 14.875 18.3833V17.3978Z" fill="#234CAD"/>
</svg>
