<svg width="22" height="19" viewBox="0 0 22 19" fill="none" xmlns="http://www.w3.org/2000/svg">
<path d="M6.22727 16.3158C6.77956 16.3158 7.22727 15.8681 7.22727 15.3158C7.22727 14.7635 6.77956 14.3158 6.22727 14.3158V16.3158ZM5.54545 7.26316V8.26316H6.54545V7.26316H5.54545ZM16.4545 7.26316H15.4545V8.26316H16.4545V7.26316ZM15.7727 14.3158C15.2204 14.3158 14.7727 14.7635 14.7727 15.3158C14.7727 15.8681 15.2204 16.3158 15.7727 16.3158V14.3158ZM10 18C10 18.5523 10.4477 19 11 19C11.5523 19 12 18.5523 12 18H10ZM12 9.94737C12 9.39508 11.5523 8.94737 11 8.94737C10.4477 8.94737 10 9.39508 10 9.94737H12ZM11.7015 10.6601C12.0951 10.2727 12.1001 9.63953 11.7127 9.24591C11.3253 8.85229 10.6922 8.84725 10.2985 9.23466L11.7015 10.6601ZM7.57127 11.9189C7.17765 12.3063 7.17261 12.9394 7.56002 13.333C7.94742 13.7267 8.58057 13.7317 8.97418 13.3443L7.57127 11.9189ZM11.7015 9.23466C11.3078 8.84725 10.6747 8.85229 10.2873 9.24591C9.89988 9.63953 9.90492 10.2727 10.2985 10.6601L11.7015 9.23466ZM13.0258 13.3443C13.4194 13.7317 14.0526 13.7267 14.44 13.333C14.8274 12.9394 14.8223 12.3063 14.4287 11.9189L13.0258 13.3443ZM6.22727 14.3158H5.09091V16.3158H6.22727V14.3158ZM5.09091 14.3158C3.36878 14.3158 2 12.9459 2 11.2895H0C0 14.0804 2.29435 16.3158 5.09091 16.3158V14.3158ZM2 11.2895C2 9.63302 3.36878 8.26316 5.09091 8.26316V6.26316C2.29435 6.26316 0 8.49855 0 11.2895H2ZM5.09091 8.26316H5.54545V6.26316H5.09091V8.26316ZM6.54545 7.26316V6.36842H4.54545V7.26316H6.54545ZM6.54545 6.36842C6.54545 3.97075 8.52476 2 11 2V0C7.45032 0 4.54545 2.83629 4.54545 6.36842H6.54545ZM11 2C13.4752 2 15.4545 3.97075 15.4545 6.36842H17.4545C17.4545 2.83629 14.5497 0 11 0V2ZM15.4545 6.36842V7.26316H17.4545V6.36842H15.4545ZM16.4545 8.26316H16.9091V6.26316H16.4545V8.26316ZM16.9091 8.26316C18.6312 8.26316 20 9.63301 20 11.2895H22C22 8.49855 19.7057 6.26316 16.9091 6.26316V8.26316ZM20 11.2895C20 12.9459 18.6312 14.3158 16.9091 14.3158V16.3158C19.7057 16.3158 22 14.0804 22 11.2895H20ZM16.9091 14.3158H15.7727V16.3158H16.9091V14.3158ZM12 18V9.94737H10V18H12ZM10.2985 9.23466L7.57127 11.9189L8.97418 13.3443L11.7015 10.6601L10.2985 9.23466ZM10.2985 10.6601L13.0258 13.3443L14.4287 11.9189L11.7015 9.23466L10.2985 10.6601Z" fill="#234CAD"/>
</svg>
